<mxfile host="app.diagrams.net" modified="2020-11-27T06:55:37.978Z" agent="5.0 (Macintosh; Intel Mac OS X 10_14_6) AppleWebKit/537.36 (KHTML, like Gecko) Chrome/86.0.4240.198 Safari/537.36" etag="Nnq52oMw7Z8MAPGCXBGs" version="13.10.1" type="github">
  <diagram id="6a731a19-8d31-9384-78a2-239565b7b9f0" name="Page-1">
    <mxGraphModel dx="2282" dy="1466" grid="1" gridSize="10" guides="1" tooltips="1" connect="1" arrows="1" fold="1" page="1" pageScale="1" pageWidth="1169" pageHeight="827" background="#ffffff" math="0" shadow="0">
      <root>
        <mxCell id="0" />
        <mxCell id="1" parent="0" />
        <mxCell id="Xp_F8eB2ixiUf06vyhHW-21" value="" style="rounded=0;whiteSpace=wrap;html=1;dashed=1;fillColor=none;strokeWidth=2;" vertex="1" parent="1">
          <mxGeometry x="620" y="-640" width="600" height="770" as="geometry" />
        </mxCell>
        <mxCell id="Xp_F8eB2ixiUf06vyhHW-13" value="" style="rounded=0;whiteSpace=wrap;html=1;dashed=1;fillColor=none;strokeWidth=2;" vertex="1" parent="1">
          <mxGeometry x="-12" y="-810" width="460" height="590" as="geometry" />
        </mxCell>
        <mxCell id="GO7fzhzILklxyF-hlyMG-145" value="" style="edgeStyle=orthogonalEdgeStyle;rounded=0;orthogonalLoop=1;jettySize=auto;html=1;" parent="1" target="GO7fzhzILklxyF-hlyMG-144" edge="1">
          <mxGeometry relative="1" as="geometry">
            <mxPoint x="540.0000000000002" y="-740.0000000000001" as="sourcePoint" />
          </mxGeometry>
        </mxCell>
        <mxCell id="GO7fzhzILklxyF-hlyMG-143" value="start" style="rounded=1;whiteSpace=wrap;html=1;" parent="1" vertex="1">
          <mxGeometry x="490" y="-790" width="100" height="50" as="geometry" />
        </mxCell>
        <mxCell id="GO7fzhzILklxyF-hlyMG-144" value="Action on pre-dev/* or release/* branch" style="rounded=1;whiteSpace=wrap;html=1;sketch=0;glass=0;" parent="1" vertex="1">
          <mxGeometry x="480" y="-660" width="120" height="60" as="geometry" />
        </mxCell>
        <mxCell id="GO7fzhzILklxyF-hlyMG-150" style="edgeStyle=orthogonalEdgeStyle;rounded=0;orthogonalLoop=1;jettySize=auto;html=1;exitX=0.5;exitY=1;exitDx=0;exitDy=0;entryX=0.5;entryY=0;entryDx=0;entryDy=0;" parent="1" source="GO7fzhzILklxyF-hlyMG-144" target="GO7fzhzILklxyF-hlyMG-149" edge="1">
          <mxGeometry relative="1" as="geometry">
            <mxPoint x="540" y="-560" as="sourcePoint" />
          </mxGeometry>
        </mxCell>
        <mxCell id="Xp_F8eB2ixiUf06vyhHW-114" style="edgeStyle=orthogonalEdgeStyle;rounded=0;orthogonalLoop=1;jettySize=auto;html=1;exitX=0;exitY=0.5;exitDx=0;exitDy=0;entryX=0.5;entryY=0;entryDx=0;entryDy=0;" edge="1" parent="1" source="GO7fzhzILklxyF-hlyMG-149" target="Xp_F8eB2ixiUf06vyhHW-106">
          <mxGeometry relative="1" as="geometry">
            <Array as="points">
              <mxPoint x="460" y="-490" />
              <mxPoint x="460" y="-689" />
            </Array>
          </mxGeometry>
        </mxCell>
        <mxCell id="GO7fzhzILklxyF-hlyMG-149" value="Work flow Start" style="rounded=1;whiteSpace=wrap;html=1;" parent="1" vertex="1">
          <mxGeometry x="480" y="-520" width="120" height="60" as="geometry" />
        </mxCell>
        <mxCell id="GO7fzhzILklxyF-hlyMG-163" value="" style="edgeStyle=orthogonalEdgeStyle;rounded=0;orthogonalLoop=1;jettySize=auto;html=1;" parent="1" source="GO7fzhzILklxyF-hlyMG-151" target="GO7fzhzILklxyF-hlyMG-162" edge="1">
          <mxGeometry relative="1" as="geometry" />
        </mxCell>
        <mxCell id="GO7fzhzILklxyF-hlyMG-151" value="&lt;span&gt;SonarCloud Code Scan&lt;/span&gt;" style="rounded=0;whiteSpace=wrap;html=1;" parent="1" vertex="1">
          <mxGeometry x="730" y="-520" width="110" height="60" as="geometry" />
        </mxCell>
        <mxCell id="GO7fzhzILklxyF-hlyMG-152" value="Step" style="text;html=1;strokeColor=none;fillColor=none;align=center;verticalAlign=middle;whiteSpace=wrap;rounded=0;" parent="1" vertex="1">
          <mxGeometry x="730" y="-550" width="40" height="20" as="geometry" />
        </mxCell>
        <mxCell id="GO7fzhzILklxyF-hlyMG-161" style="edgeStyle=orthogonalEdgeStyle;rounded=0;orthogonalLoop=1;jettySize=auto;html=1;exitX=1;exitY=0.5;exitDx=0;exitDy=0;entryX=0.5;entryY=1;entryDx=0;entryDy=0;" parent="1" source="GO7fzhzILklxyF-hlyMG-149" target="Xp_F8eB2ixiUf06vyhHW-100" edge="1">
          <mxGeometry relative="1" as="geometry">
            <mxPoint x="585" y="-390" as="sourcePoint" />
            <mxPoint x="640" y="-490" as="targetPoint" />
          </mxGeometry>
        </mxCell>
        <mxCell id="GO7fzhzILklxyF-hlyMG-166" value="" style="edgeStyle=orthogonalEdgeStyle;rounded=0;orthogonalLoop=1;jettySize=auto;html=1;" parent="1" source="GO7fzhzILklxyF-hlyMG-162" target="GO7fzhzILklxyF-hlyMG-165" edge="1">
          <mxGeometry relative="1" as="geometry" />
        </mxCell>
        <mxCell id="GO7fzhzILklxyF-hlyMG-162" value="Auto Test" style="whiteSpace=wrap;html=1;rounded=0;direction=south;" parent="1" vertex="1">
          <mxGeometry x="880" y="-520" width="60" height="60" as="geometry" />
        </mxCell>
        <mxCell id="GO7fzhzILklxyF-hlyMG-164" value="Step" style="text;html=1;align=center;verticalAlign=middle;resizable=0;points=[];autosize=1;" parent="1" vertex="1">
          <mxGeometry x="880" y="-550" width="40" height="20" as="geometry" />
        </mxCell>
        <mxCell id="GO7fzhzILklxyF-hlyMG-165" value="CICD for pre-dev branch" style="whiteSpace=wrap;html=1;rounded=0;" parent="1" vertex="1">
          <mxGeometry x="970" y="-520" width="100" height="60" as="geometry" />
        </mxCell>
        <mxCell id="GO7fzhzILklxyF-hlyMG-167" value="Step" style="text;html=1;align=center;verticalAlign=middle;resizable=0;points=[];autosize=1;" parent="1" vertex="1">
          <mxGeometry x="970" y="-550" width="40" height="20" as="geometry" />
        </mxCell>
        <mxCell id="GO7fzhzILklxyF-hlyMG-170" value="" style="endArrow=none;html=1;entryX=0.5;entryY=1;entryDx=0;entryDy=0;" parent="1" target="GO7fzhzILklxyF-hlyMG-165" edge="1">
          <mxGeometry width="50" height="50" relative="1" as="geometry">
            <mxPoint x="1020" as="sourcePoint" />
            <mxPoint x="1109.5" y="-430" as="targetPoint" />
            <Array as="points">
              <mxPoint x="1020" y="70" />
            </Array>
          </mxGeometry>
        </mxCell>
        <mxCell id="GO7fzhzILklxyF-hlyMG-172" value="" style="endArrow=classic;html=1;" parent="1" edge="1">
          <mxGeometry width="50" height="50" relative="1" as="geometry">
            <mxPoint x="1020" y="-420" as="sourcePoint" />
            <mxPoint x="1050" y="-420" as="targetPoint" />
          </mxGeometry>
        </mxCell>
        <mxCell id="GO7fzhzILklxyF-hlyMG-173" value="" style="endArrow=classic;html=1;" parent="1" edge="1">
          <mxGeometry width="50" height="50" relative="1" as="geometry">
            <mxPoint x="1020" y="-350" as="sourcePoint" />
            <mxPoint x="1050" y="-350" as="targetPoint" />
          </mxGeometry>
        </mxCell>
        <mxCell id="GO7fzhzILklxyF-hlyMG-174" value="" style="endArrow=classic;html=1;" parent="1" edge="1">
          <mxGeometry width="50" height="50" relative="1" as="geometry">
            <mxPoint x="1020" y="-280" as="sourcePoint" />
            <mxPoint x="1050" y="-280" as="targetPoint" />
          </mxGeometry>
        </mxCell>
        <mxCell id="GO7fzhzILklxyF-hlyMG-175" value="Export Env Manually" style="shape=process;whiteSpace=wrap;html=1;backgroundOutline=1;" parent="1" vertex="1">
          <mxGeometry x="1051" y="-450" width="140" height="60" as="geometry" />
        </mxCell>
        <mxCell id="GO7fzhzILklxyF-hlyMG-176" value="defineEnvVar" style="shape=process;whiteSpace=wrap;html=1;backgroundOutline=1;" parent="1" vertex="1">
          <mxGeometry x="1051" y="-380" width="140" height="60" as="geometry" />
        </mxCell>
        <mxCell id="GO7fzhzILklxyF-hlyMG-177" value="authAzure" style="shape=process;whiteSpace=wrap;html=1;backgroundOutline=1;" parent="1" vertex="1">
          <mxGeometry x="1051" y="-310" width="140" height="60" as="geometry" />
        </mxCell>
        <mxCell id="GO7fzhzILklxyF-hlyMG-178" value="" style="endArrow=classic;html=1;" parent="1" edge="1">
          <mxGeometry width="50" height="50" relative="1" as="geometry">
            <mxPoint x="1020" y="-210" as="sourcePoint" />
            <mxPoint x="1050" y="-210" as="targetPoint" />
          </mxGeometry>
        </mxCell>
        <mxCell id="GO7fzhzILklxyF-hlyMG-179" value="buildSource" style="shape=process;whiteSpace=wrap;html=1;backgroundOutline=1;" parent="1" vertex="1">
          <mxGeometry x="1051" y="-240" width="140" height="60" as="geometry" />
        </mxCell>
        <mxCell id="Xp_F8eB2ixiUf06vyhHW-1" value="buildDockerImage" style="shape=process;whiteSpace=wrap;html=1;backgroundOutline=1;" vertex="1" parent="1">
          <mxGeometry x="1051" y="-170" width="140" height="60" as="geometry" />
        </mxCell>
        <mxCell id="Xp_F8eB2ixiUf06vyhHW-2" value="" style="endArrow=classic;html=1;" edge="1" parent="1">
          <mxGeometry width="50" height="50" relative="1" as="geometry">
            <mxPoint x="1020" y="-140" as="sourcePoint" />
            <mxPoint x="1050" y="-140" as="targetPoint" />
          </mxGeometry>
        </mxCell>
        <mxCell id="Xp_F8eB2ixiUf06vyhHW-3" value="" style="endArrow=classic;html=1;" edge="1" parent="1">
          <mxGeometry width="50" height="50" relative="1" as="geometry">
            <mxPoint x="1020" y="-70" as="sourcePoint" />
            <mxPoint x="1050" y="-70" as="targetPoint" />
          </mxGeometry>
        </mxCell>
        <mxCell id="Xp_F8eB2ixiUf06vyhHW-4" value="prepareDeployment" style="shape=process;whiteSpace=wrap;html=1;backgroundOutline=1;" vertex="1" parent="1">
          <mxGeometry x="1051" y="-100" width="140" height="60" as="geometry" />
        </mxCell>
        <mxCell id="Xp_F8eB2ixiUf06vyhHW-5" value="deployHelm" style="shape=process;whiteSpace=wrap;html=1;backgroundOutline=1;" vertex="1" parent="1">
          <mxGeometry x="1051" y="-30" width="140" height="60" as="geometry" />
        </mxCell>
        <mxCell id="Xp_F8eB2ixiUf06vyhHW-6" value="" style="endArrow=classic;html=1;" edge="1" parent="1">
          <mxGeometry width="50" height="50" relative="1" as="geometry">
            <mxPoint x="1020" as="sourcePoint" />
            <mxPoint x="1050" as="targetPoint" />
          </mxGeometry>
        </mxCell>
        <mxCell id="Xp_F8eB2ixiUf06vyhHW-14" value="branch：pre-dev" style="text;html=1;strokeColor=none;fillColor=none;align=center;verticalAlign=middle;whiteSpace=wrap;rounded=0;dashed=1;" vertex="1" parent="1">
          <mxGeometry x="630" y="-600" width="120" height="20" as="geometry" />
        </mxCell>
        <mxCell id="Xp_F8eB2ixiUf06vyhHW-15" value="deployment：develop" style="text;html=1;strokeColor=none;fillColor=none;align=center;verticalAlign=middle;whiteSpace=wrap;rounded=0;dashed=1;" vertex="1" parent="1">
          <mxGeometry x="644" y="-580" width="120" height="20" as="geometry" />
        </mxCell>
        <mxCell id="Xp_F8eB2ixiUf06vyhHW-9" value="Workflow End" style="rounded=1;whiteSpace=wrap;html=1;" vertex="1" parent="1">
          <mxGeometry x="1100" y="-520" width="100" height="60" as="geometry" />
        </mxCell>
        <mxCell id="Xp_F8eB2ixiUf06vyhHW-17" value="" style="edgeStyle=orthogonalEdgeStyle;rounded=0;orthogonalLoop=1;jettySize=auto;html=1;" edge="1" parent="1" source="GO7fzhzILklxyF-hlyMG-165" target="Xp_F8eB2ixiUf06vyhHW-9">
          <mxGeometry relative="1" as="geometry">
            <mxPoint x="1110" y="-490" as="sourcePoint" />
            <mxPoint x="1230" y="-490" as="targetPoint" />
          </mxGeometry>
        </mxCell>
        <mxCell id="Xp_F8eB2ixiUf06vyhHW-120" value="" style="edgeStyle=orthogonalEdgeStyle;rounded=0;orthogonalLoop=1;jettySize=auto;html=1;entryX=0;entryY=0.5;entryDx=0;entryDy=0;exitX=0;exitY=0.5;exitDx=0;exitDy=0;" edge="1" parent="1" source="Xp_F8eB2ixiUf06vyhHW-19" target="Xp_F8eB2ixiUf06vyhHW-92">
          <mxGeometry relative="1" as="geometry">
            <mxPoint x="-10" y="-37.64705882352941" as="targetPoint" />
            <Array as="points">
              <mxPoint x="-30" y="-689" />
              <mxPoint x="-30" y="-50" />
            </Array>
          </mxGeometry>
        </mxCell>
        <mxCell id="Xp_F8eB2ixiUf06vyhHW-19" value="CI for release branch" style="whiteSpace=wrap;html=1;" vertex="1" parent="1">
          <mxGeometry x="3" y="-719" width="120" height="60" as="geometry" />
        </mxCell>
        <mxCell id="Xp_F8eB2ixiUf06vyhHW-33" value="" style="endArrow=none;html=1;entryX=0.5;entryY=1;entryDx=0;entryDy=0;" edge="1" parent="1">
          <mxGeometry width="50" height="50" relative="1" as="geometry">
            <mxPoint x="13" y="-269" as="sourcePoint" />
            <mxPoint x="13" y="-659" as="targetPoint" />
          </mxGeometry>
        </mxCell>
        <mxCell id="Xp_F8eB2ixiUf06vyhHW-34" value="" style="endArrow=classic;html=1;entryX=0;entryY=0.5;entryDx=0;entryDy=0;" edge="1" parent="1" target="Xp_F8eB2ixiUf06vyhHW-37">
          <mxGeometry width="50" height="50" relative="1" as="geometry">
            <mxPoint x="13" y="-619" as="sourcePoint" />
            <mxPoint x="93" y="-619" as="targetPoint" />
          </mxGeometry>
        </mxCell>
        <mxCell id="Xp_F8eB2ixiUf06vyhHW-35" value="" style="endArrow=classic;html=1;entryX=0;entryY=0.5;entryDx=0;entryDy=0;" edge="1" parent="1" target="Xp_F8eB2ixiUf06vyhHW-38">
          <mxGeometry width="50" height="50" relative="1" as="geometry">
            <mxPoint x="13" y="-549" as="sourcePoint" />
            <mxPoint x="93" y="-549" as="targetPoint" />
          </mxGeometry>
        </mxCell>
        <mxCell id="Xp_F8eB2ixiUf06vyhHW-36" value="" style="endArrow=classic;html=1;entryX=0;entryY=0.5;entryDx=0;entryDy=0;entryPerimeter=0;" edge="1" parent="1" target="Xp_F8eB2ixiUf06vyhHW-39">
          <mxGeometry width="50" height="50" relative="1" as="geometry">
            <mxPoint x="13" y="-479" as="sourcePoint" />
            <mxPoint x="93" y="-479" as="targetPoint" />
          </mxGeometry>
        </mxCell>
        <mxCell id="Xp_F8eB2ixiUf06vyhHW-37" value="Export Env Manually" style="shape=process;whiteSpace=wrap;html=1;backgroundOutline=1;" vertex="1" parent="1">
          <mxGeometry x="43" y="-649" width="130" height="60" as="geometry" />
        </mxCell>
        <mxCell id="Xp_F8eB2ixiUf06vyhHW-38" value="defineEnvVar" style="shape=process;whiteSpace=wrap;html=1;backgroundOutline=1;" vertex="1" parent="1">
          <mxGeometry x="43" y="-579" width="130" height="60" as="geometry" />
        </mxCell>
        <mxCell id="Xp_F8eB2ixiUf06vyhHW-39" value="releaseTagCheck" style="shape=process;whiteSpace=wrap;html=1;backgroundOutline=1;" vertex="1" parent="1">
          <mxGeometry x="43" y="-509" width="130" height="60" as="geometry" />
        </mxCell>
        <mxCell id="Xp_F8eB2ixiUf06vyhHW-40" value="" style="endArrow=classic;html=1;entryX=0;entryY=0.5;entryDx=0;entryDy=0;" edge="1" parent="1" target="Xp_F8eB2ixiUf06vyhHW-41">
          <mxGeometry width="50" height="50" relative="1" as="geometry">
            <mxPoint x="13" y="-409" as="sourcePoint" />
            <mxPoint x="93" y="-409" as="targetPoint" />
          </mxGeometry>
        </mxCell>
        <mxCell id="Xp_F8eB2ixiUf06vyhHW-41" value="buildSource" style="shape=process;whiteSpace=wrap;html=1;backgroundOutline=1;" vertex="1" parent="1">
          <mxGeometry x="43" y="-439" width="130" height="60" as="geometry" />
        </mxCell>
        <mxCell id="Xp_F8eB2ixiUf06vyhHW-42" value="buildDockerImage" style="shape=process;whiteSpace=wrap;html=1;backgroundOutline=1;" vertex="1" parent="1">
          <mxGeometry x="43" y="-369" width="130" height="60" as="geometry" />
        </mxCell>
        <mxCell id="Xp_F8eB2ixiUf06vyhHW-43" value="" style="endArrow=classic;html=1;" edge="1" parent="1">
          <mxGeometry width="50" height="50" relative="1" as="geometry">
            <mxPoint x="13" y="-339" as="sourcePoint" />
            <mxPoint x="43" y="-339" as="targetPoint" />
          </mxGeometry>
        </mxCell>
        <mxCell id="Xp_F8eB2ixiUf06vyhHW-44" value="" style="endArrow=classic;html=1;entryX=0;entryY=0.5;entryDx=0;entryDy=0;" edge="1" parent="1" target="Xp_F8eB2ixiUf06vyhHW-45">
          <mxGeometry width="50" height="50" relative="1" as="geometry">
            <mxPoint x="13" y="-269" as="sourcePoint" />
            <mxPoint x="93" y="-269" as="targetPoint" />
          </mxGeometry>
        </mxCell>
        <mxCell id="Xp_F8eB2ixiUf06vyhHW-45" value="notificationScript" style="shape=process;whiteSpace=wrap;html=1;backgroundOutline=1;" vertex="1" parent="1">
          <mxGeometry x="43" y="-299" width="130" height="60" as="geometry" />
        </mxCell>
        <mxCell id="Xp_F8eB2ixiUf06vyhHW-48" value="branch：release/* |&amp;nbsp; hotfix/*" style="text;html=1;strokeColor=none;fillColor=none;align=center;verticalAlign=middle;whiteSpace=wrap;rounded=0;dashed=1;" vertex="1" parent="1">
          <mxGeometry x="-3" y="-775" width="176" height="20" as="geometry" />
        </mxCell>
        <mxCell id="Xp_F8eB2ixiUf06vyhHW-49" value="deployment：uat | sit | pilot | production" style="text;html=1;strokeColor=none;fillColor=none;align=center;verticalAlign=middle;whiteSpace=wrap;rounded=0;dashed=1;" vertex="1" parent="1">
          <mxGeometry x="65" y="-140" width="220" height="20" as="geometry" />
        </mxCell>
        <mxCell id="Xp_F8eB2ixiUf06vyhHW-50" value="notificationScript" style="shape=process;whiteSpace=wrap;html=1;backgroundOutline=1;" vertex="1" parent="1">
          <mxGeometry x="1051" y="40" width="140" height="60" as="geometry" />
        </mxCell>
        <mxCell id="Xp_F8eB2ixiUf06vyhHW-51" value="" style="endArrow=classic;html=1;" edge="1" parent="1">
          <mxGeometry width="50" height="50" relative="1" as="geometry">
            <mxPoint x="1020" y="66" as="sourcePoint" />
            <mxPoint x="1050" y="66" as="targetPoint" />
          </mxGeometry>
        </mxCell>
        <mxCell id="Xp_F8eB2ixiUf06vyhHW-56" value="" style="edgeStyle=orthogonalEdgeStyle;rounded=0;orthogonalLoop=1;jettySize=auto;html=1;" edge="1" parent="1" source="Xp_F8eB2ixiUf06vyhHW-54" target="Xp_F8eB2ixiUf06vyhHW-55">
          <mxGeometry relative="1" as="geometry" />
        </mxCell>
        <mxCell id="Xp_F8eB2ixiUf06vyhHW-54" value="&lt;span&gt;SonarCloud Code Scan&lt;/span&gt;" style="rounded=0;whiteSpace=wrap;html=1;" vertex="1" parent="1">
          <mxGeometry x="243" y="-719" width="101" height="60" as="geometry" />
        </mxCell>
        <mxCell id="Xp_F8eB2ixiUf06vyhHW-58" style="edgeStyle=orthogonalEdgeStyle;rounded=0;orthogonalLoop=1;jettySize=auto;html=1;exitX=0.5;exitY=1;exitDx=0;exitDy=0;entryX=1;entryY=0.5;entryDx=0;entryDy=0;" edge="1" parent="1" source="Xp_F8eB2ixiUf06vyhHW-55" target="Xp_F8eB2ixiUf06vyhHW-19">
          <mxGeometry relative="1" as="geometry" />
        </mxCell>
        <mxCell id="Xp_F8eB2ixiUf06vyhHW-55" value="Auto Test" style="whiteSpace=wrap;html=1;rounded=0;direction=south;" vertex="1" parent="1">
          <mxGeometry x="153" y="-719" width="60" height="60" as="geometry" />
        </mxCell>
        <mxCell id="Xp_F8eB2ixiUf06vyhHW-62" value="" style="rounded=0;whiteSpace=wrap;html=1;dashed=1;fillColor=none;strokeWidth=2;" vertex="1" parent="1">
          <mxGeometry x="40" y="-200" width="540" height="620" as="geometry" />
        </mxCell>
        <mxCell id="Xp_F8eB2ixiUf06vyhHW-124" value="" style="edgeStyle=orthogonalEdgeStyle;rounded=0;orthogonalLoop=1;jettySize=auto;html=1;" edge="1" parent="1" source="Xp_F8eB2ixiUf06vyhHW-63" target="Xp_F8eB2ixiUf06vyhHW-123">
          <mxGeometry relative="1" as="geometry" />
        </mxCell>
        <mxCell id="Xp_F8eB2ixiUf06vyhHW-63" value="deploy to custom deployment" style="whiteSpace=wrap;html=1;" vertex="1" parent="1">
          <mxGeometry x="320" y="-80" width="120" height="60" as="geometry" />
        </mxCell>
        <mxCell id="Xp_F8eB2ixiUf06vyhHW-64" value="" style="endArrow=none;html=1;entryX=0.5;entryY=1;entryDx=0;entryDy=0;" edge="1" parent="1">
          <mxGeometry width="50" height="50" relative="1" as="geometry">
            <mxPoint x="330" y="370" as="sourcePoint" />
            <mxPoint x="330" y="-20" as="targetPoint" />
          </mxGeometry>
        </mxCell>
        <mxCell id="Xp_F8eB2ixiUf06vyhHW-65" value="" style="endArrow=classic;html=1;entryX=0;entryY=0.5;entryDx=0;entryDy=0;" edge="1" parent="1" target="Xp_F8eB2ixiUf06vyhHW-68">
          <mxGeometry width="50" height="50" relative="1" as="geometry">
            <mxPoint x="330" y="20" as="sourcePoint" />
            <mxPoint x="410" y="20" as="targetPoint" />
          </mxGeometry>
        </mxCell>
        <mxCell id="Xp_F8eB2ixiUf06vyhHW-66" value="" style="endArrow=classic;html=1;entryX=0;entryY=0.5;entryDx=0;entryDy=0;" edge="1" parent="1" target="Xp_F8eB2ixiUf06vyhHW-69">
          <mxGeometry width="50" height="50" relative="1" as="geometry">
            <mxPoint x="330" y="90" as="sourcePoint" />
            <mxPoint x="410" y="90" as="targetPoint" />
          </mxGeometry>
        </mxCell>
        <mxCell id="Xp_F8eB2ixiUf06vyhHW-67" value="" style="endArrow=classic;html=1;entryX=0;entryY=0.5;entryDx=0;entryDy=0;entryPerimeter=0;" edge="1" parent="1" target="Xp_F8eB2ixiUf06vyhHW-70">
          <mxGeometry width="50" height="50" relative="1" as="geometry">
            <mxPoint x="330" y="160" as="sourcePoint" />
            <mxPoint x="410" y="160" as="targetPoint" />
          </mxGeometry>
        </mxCell>
        <mxCell id="Xp_F8eB2ixiUf06vyhHW-68" value="Export Env Manually" style="shape=process;whiteSpace=wrap;html=1;backgroundOutline=1;" vertex="1" parent="1">
          <mxGeometry x="360" y="-10" width="140" height="60" as="geometry" />
        </mxCell>
        <mxCell id="Xp_F8eB2ixiUf06vyhHW-69" value="defineEnvVar" style="shape=process;whiteSpace=wrap;html=1;backgroundOutline=1;" vertex="1" parent="1">
          <mxGeometry x="360" y="60" width="140" height="60" as="geometry" />
        </mxCell>
        <mxCell id="Xp_F8eB2ixiUf06vyhHW-70" value="authAzure" style="shape=process;whiteSpace=wrap;html=1;backgroundOutline=1;" vertex="1" parent="1">
          <mxGeometry x="360" y="130" width="140" height="60" as="geometry" />
        </mxCell>
        <mxCell id="Xp_F8eB2ixiUf06vyhHW-71" value="" style="endArrow=classic;html=1;entryX=0;entryY=0.5;entryDx=0;entryDy=0;" edge="1" parent="1" target="Xp_F8eB2ixiUf06vyhHW-72">
          <mxGeometry width="50" height="50" relative="1" as="geometry">
            <mxPoint x="330" y="230" as="sourcePoint" />
            <mxPoint x="410" y="230" as="targetPoint" />
          </mxGeometry>
        </mxCell>
        <mxCell id="Xp_F8eB2ixiUf06vyhHW-72" value="prodVersionCheck" style="shape=process;whiteSpace=wrap;html=1;backgroundOutline=1;" vertex="1" parent="1">
          <mxGeometry x="360" y="200" width="140" height="60" as="geometry" />
        </mxCell>
        <mxCell id="Xp_F8eB2ixiUf06vyhHW-73" value="prepareDeployment" style="shape=process;whiteSpace=wrap;html=1;backgroundOutline=1;" vertex="1" parent="1">
          <mxGeometry x="360" y="270" width="140" height="60" as="geometry" />
        </mxCell>
        <mxCell id="Xp_F8eB2ixiUf06vyhHW-74" value="" style="endArrow=classic;html=1;" edge="1" parent="1">
          <mxGeometry width="50" height="50" relative="1" as="geometry">
            <mxPoint x="330" y="300" as="sourcePoint" />
            <mxPoint x="360" y="300" as="targetPoint" />
          </mxGeometry>
        </mxCell>
        <mxCell id="Xp_F8eB2ixiUf06vyhHW-75" value="" style="endArrow=classic;html=1;entryX=0;entryY=0.5;entryDx=0;entryDy=0;" edge="1" parent="1" target="Xp_F8eB2ixiUf06vyhHW-76">
          <mxGeometry width="50" height="50" relative="1" as="geometry">
            <mxPoint x="330" y="370" as="sourcePoint" />
            <mxPoint x="410" y="370" as="targetPoint" />
          </mxGeometry>
        </mxCell>
        <mxCell id="Xp_F8eB2ixiUf06vyhHW-76" value="deployHelm" style="shape=process;whiteSpace=wrap;html=1;backgroundOutline=1;" vertex="1" parent="1">
          <mxGeometry x="360" y="340" width="140" height="60" as="geometry" />
        </mxCell>
        <mxCell id="Xp_F8eB2ixiUf06vyhHW-84" value="Step" style="text;html=1;strokeColor=none;fillColor=none;align=center;verticalAlign=middle;whiteSpace=wrap;rounded=0;" vertex="1" parent="1">
          <mxGeometry x="244" y="-749" width="40" height="20" as="geometry" />
        </mxCell>
        <mxCell id="Xp_F8eB2ixiUf06vyhHW-85" value="Step" style="text;html=1;strokeColor=none;fillColor=none;align=center;verticalAlign=middle;whiteSpace=wrap;rounded=0;" vertex="1" parent="1">
          <mxGeometry x="153" y="-749" width="40" height="20" as="geometry" />
        </mxCell>
        <mxCell id="Xp_F8eB2ixiUf06vyhHW-86" value="Step" style="text;html=1;strokeColor=none;fillColor=none;align=center;verticalAlign=middle;whiteSpace=wrap;rounded=0;" vertex="1" parent="1">
          <mxGeometry x="3" y="-749" width="40" height="20" as="geometry" />
        </mxCell>
        <mxCell id="Xp_F8eB2ixiUf06vyhHW-87" value="Step" style="text;html=1;strokeColor=none;fillColor=none;align=center;verticalAlign=middle;whiteSpace=wrap;rounded=0;" vertex="1" parent="1">
          <mxGeometry x="315" y="-110" width="40" height="20" as="geometry" />
        </mxCell>
        <mxCell id="Xp_F8eB2ixiUf06vyhHW-121" style="edgeStyle=orthogonalEdgeStyle;rounded=0;orthogonalLoop=1;jettySize=auto;html=1;exitX=1;exitY=0.5;exitDx=0;exitDy=0;entryX=0;entryY=0.5;entryDx=0;entryDy=0;" edge="1" parent="1" source="Xp_F8eB2ixiUf06vyhHW-92" target="Xp_F8eB2ixiUf06vyhHW-110">
          <mxGeometry relative="1" as="geometry" />
        </mxCell>
        <mxCell id="Xp_F8eB2ixiUf06vyhHW-92" value="click &quot;run pipeline&quot; on bitbucket" style="whiteSpace=wrap;html=1;rounded=1;" vertex="1" parent="1">
          <mxGeometry x="61" y="-80" width="120" height="60" as="geometry" />
        </mxCell>
        <mxCell id="Xp_F8eB2ixiUf06vyhHW-94" value="&lt;b&gt;&lt;font style=&quot;font-size: 13px&quot;&gt;CICD for development&lt;/font&gt;&lt;/b&gt;" style="text;html=1;strokeColor=none;fillColor=none;align=center;verticalAlign=middle;whiteSpace=wrap;rounded=0;dashed=1;" vertex="1" parent="1">
          <mxGeometry x="635.5" y="-630" width="154.5" height="20" as="geometry" />
        </mxCell>
        <mxCell id="Xp_F8eB2ixiUf06vyhHW-95" value="&lt;b&gt;&lt;font style=&quot;font-size: 13px&quot;&gt;CI for release/hotfix branch&lt;/font&gt;&lt;/b&gt;" style="text;html=1;strokeColor=none;fillColor=none;align=center;verticalAlign=middle;whiteSpace=wrap;rounded=0;dashed=1;" vertex="1" parent="1">
          <mxGeometry x="3" y="-801" width="184" height="20" as="geometry" />
        </mxCell>
        <mxCell id="Xp_F8eB2ixiUf06vyhHW-97" value="&lt;b&gt;&lt;font style=&quot;font-size: 13px&quot;&gt;CD for uat | sit | pilot | production environment&lt;/font&gt;&lt;/b&gt;" style="text;html=1;strokeColor=none;fillColor=none;align=center;verticalAlign=middle;whiteSpace=wrap;rounded=0;dashed=1;" vertex="1" parent="1">
          <mxGeometry x="60" y="-190" width="305" height="20" as="geometry" />
        </mxCell>
        <mxCell id="Xp_F8eB2ixiUf06vyhHW-98" value="branch：release/*" style="text;html=1;strokeColor=none;fillColor=none;align=center;verticalAlign=middle;whiteSpace=wrap;rounded=0;dashed=1;" vertex="1" parent="1">
          <mxGeometry x="57.5" y="-160" width="120" height="20" as="geometry" />
        </mxCell>
        <mxCell id="Xp_F8eB2ixiUf06vyhHW-101" value="" style="edgeStyle=orthogonalEdgeStyle;rounded=0;orthogonalLoop=1;jettySize=auto;html=1;entryX=0;entryY=0.5;entryDx=0;entryDy=0;" edge="1" parent="1" source="Xp_F8eB2ixiUf06vyhHW-100" target="GO7fzhzILklxyF-hlyMG-151">
          <mxGeometry relative="1" as="geometry" />
        </mxCell>
        <mxCell id="Xp_F8eB2ixiUf06vyhHW-100" value="Unit Test" style="whiteSpace=wrap;html=1;rounded=0;direction=south;" vertex="1" parent="1">
          <mxGeometry x="635.5" y="-520" width="60" height="60" as="geometry" />
        </mxCell>
        <mxCell id="Xp_F8eB2ixiUf06vyhHW-102" value="Step" style="text;html=1;strokeColor=none;fillColor=none;align=center;verticalAlign=middle;whiteSpace=wrap;rounded=0;" vertex="1" parent="1">
          <mxGeometry x="630" y="-550" width="40" height="20" as="geometry" />
        </mxCell>
        <mxCell id="Xp_F8eB2ixiUf06vyhHW-107" value="" style="edgeStyle=orthogonalEdgeStyle;rounded=0;orthogonalLoop=1;jettySize=auto;html=1;entryX=1;entryY=0.5;entryDx=0;entryDy=0;" edge="1" parent="1" source="Xp_F8eB2ixiUf06vyhHW-106" target="Xp_F8eB2ixiUf06vyhHW-54">
          <mxGeometry relative="1" as="geometry">
            <mxPoint x="354" y="-689" as="targetPoint" />
          </mxGeometry>
        </mxCell>
        <mxCell id="Xp_F8eB2ixiUf06vyhHW-106" value="Unit Test" style="whiteSpace=wrap;html=1;rounded=0;direction=south;" vertex="1" parent="1">
          <mxGeometry x="374" y="-719" width="60" height="60" as="geometry" />
        </mxCell>
        <mxCell id="Xp_F8eB2ixiUf06vyhHW-109" value="Step" style="text;html=1;strokeColor=none;fillColor=none;align=center;verticalAlign=middle;whiteSpace=wrap;rounded=0;" vertex="1" parent="1">
          <mxGeometry x="374" y="-749" width="40" height="20" as="geometry" />
        </mxCell>
        <mxCell id="Xp_F8eB2ixiUf06vyhHW-122" style="edgeStyle=orthogonalEdgeStyle;rounded=0;orthogonalLoop=1;jettySize=auto;html=1;exitX=1;exitY=0.5;exitDx=0;exitDy=0;entryX=0;entryY=0.5;entryDx=0;entryDy=0;" edge="1" parent="1" source="Xp_F8eB2ixiUf06vyhHW-110" target="Xp_F8eB2ixiUf06vyhHW-63">
          <mxGeometry relative="1" as="geometry" />
        </mxCell>
        <mxCell id="Xp_F8eB2ixiUf06vyhHW-110" value="select a release branch to deploy" style="rounded=1;whiteSpace=wrap;html=1;fillColor=none;" vertex="1" parent="1">
          <mxGeometry x="199" y="-80" width="105" height="60" as="geometry" />
        </mxCell>
        <mxCell id="Xp_F8eB2ixiUf06vyhHW-123" value="Workflow End" style="rounded=1;whiteSpace=wrap;html=1;" vertex="1" parent="1">
          <mxGeometry x="460" y="-80" width="100" height="60" as="geometry" />
        </mxCell>
      </root>
    </mxGraphModel>
  </diagram>
</mxfile>
